# xmcd
# 
# Track frame offsets:
#     150
#     31407
#     57665
#     90909
#     113845
#     132437
#     151038
#     173083
#     199412
#     219328
# 
# Disc length: 3191
# 
# Revision: 0
# Processed by: cddbd v1.5.2PL0 Copyright (c) Steve Scherf et al.
# Submitted via: fre:ac v1.0.31
# 
DISCID=830c750a
DTITLE=Jerry Garcia Acoustic Band - Acoustic On The Eel
DYEAR=1987
DGENRE=Folk
TTITLE0=Deep Elem Blues
TTITLE1=I've Been All Around This World
TTITLE2=Friend Of The Devil
TTITLE3=Trouble In Mind
TTITLE4=Little Sadie
TTITLE5=Diamond Joe
TTITLE6=Spike Driver Blues
TTITLE7=Oh Babe, It Ain't No Lie
TTITLE8=I'm Troubled
TTITLE9=Ripple
EXTD=
EXTT0=
EXTT1=
EXTT2=
EXTT3=
EXTT4=
EXTT5=
EXTT6=
EXTT7=
EXTT8=
EXTT9=
PLAYORDER=
